<?xml version="1.0" standalone="no"?>
<!DOCTYPE svg PUBLIC "-//W3C//DTD SVG 1.1//EN" "http://www.w3.org/Graphics/SVG/1.1/DTD/svg11.dtd">
<svg xmlns="http://www.w3.org/2000/svg">
<metadata>Copyright (C) 2016 by original authors @ fontello.com</metadata>
<defs>
<font id="fontello" horiz-adv-x="1000" >
<font-face font-family="fontello" font-weight="400" font-stretch="normal" units-per-em="1000" ascent="850" descent="-150" />
<missing-glyph horiz-adv-x="1000" />
<glyph glyph-name="pinboard" unicode="&#xe800;" d="M0 527l316 323 0-123 301-277 187 46-195-208 391-438-444 392-188-192 30 169-255 316z" horiz-adv-x="1000" />

<glyph glyph-name="line" unicode="&#xe801;" d="M1318 77l-863 0c-51 0-91-40-91-91 0-50 40-91 91-91l863 0c50 0 91 41 91 91 0 51-41 91-91 91l0 0z m0 364l-863 0c-51 0-91-41-91-91 0-50 40-91 91-91l863 0c50 0 91 41 91 91 0 50-41 91-91 91l0 0z m-863 182l863 0c50 0 91 41 91 91 0 50-41 91-91 91l-863 0c-51 0-91-41-91-91 0-50 40-91 91-91l0 0z m-319-500c-75 0-136-61-136-137 0-75 61-136 136-136 76 0 137 61 137 136 0 76-61 137-137 137l0 0z m0 363c-75 0-136-61-136-136 0-75 61-136 136-136 76 0 137 61 137 136 0 75-61 136-137 136l0 0z m0 364c-75 0-136-61-136-136 0-76 61-137 136-137 76 0 137 61 137 137 0 75-61 136-137 136l0 0z" horiz-adv-x="1409" />

<glyph glyph-name="mosaic" unicode="&#xe802;" d="M286 850l-143 0c-79 0-143-64-143-143l0-143c0-79 64-143 143-143l143 0c79 0 143 64 143 143l0 143c0 79-64 143-143 143l0 0z m0-571l-143 0c-79 0-143-64-143-143l0-143c0-79 64-143 143-143l143 0c79 0 143 64 143 143l0 143c0 79-64 143-143 143l0 0z m571 0l-143 0c-79 0-143-64-143-143l0-143c0-79 64-143 143-143l143 0c79 0 143 64 143 143l0 143c0 79-64 143-143 143l0 0z m0 571l-143 0c-79 0-143-64-143-143l0-143c0-79 64-143 143-143l143 0c79 0 143 64 143 143l0 143c0 79-64 143-143 143l0 0z" horiz-adv-x="1000" />

<glyph glyph-name="basket" unicode="&#xe803;" d="M139 76c45 0 79-35 79-79 0-43-34-78-79-78-43 0-78 35-78 78 0 44 35 79 78 79z m530 0c44 0 77-35 77-79 0-43-33-78-77-78s-79 35-79 78c0 44 35 79 79 79z m-478 588l565 0c38 0 55-22 55-50l0-233c0-27-20-48-46-50l-505-57c-41-5-46-58 3-58l478 0c55 0 55-82 0-82l-488 0c-110 0-152 122-65 185l43 33-155 339-76 0c-59 0-59 90 0 90l89 0c45 0 57-22 71-54z m345-70l-130 0 27-85 123 0z m-312 0l39-85 126 0-28 85-137 0z m109-241l100 10-33 101-119 0z m143 15l113 11-25 85-119 0z m267 29l0 67-133 0 20-78z m0 112l0 85-162 0 19-85 143 0z" horiz-adv-x="811" />

<glyph glyph-name="rouble" unicode="&#xe804;" d="M582 535q0 56-36 90t-96 35h-178v-250h178q60 0 96 34t36 91z m132 0q0-108-70-176t-182-68h-190v-66h282q7 0 12-5t5-13v-71q0-8-5-13t-12-5h-282v-107q0-8-6-13t-12-5h-93q-8 0-13 5t-5 13v107h-125q-8 0-13 5t-5 13v71q0 8 5 13t13 5h125v66h-125q-8 0-13 5t-5 13v83q0 7 5 12t13 6h125v351q0 8 5 13t13 5h301q111 0 182-69t70-175z" horiz-adv-x="714.3" />

<glyph glyph-name="down-dir" unicode="&#xe805;" d="M571 457q0-14-10-25l-250-250q-11-11-25-11t-25 11l-250 250q-11 11-11 25t11 25 25 11h500q14 0 25-11t10-25z" horiz-adv-x="571.4" />

<glyph glyph-name="dot-3" unicode="&#xe806;" d="M110 460q46 0 78-32t32-78q0-44-32-77t-78-33-78 33-32 77q0 46 32 78t78 32z m350 0q46 0 78-32t32-78q0-44-33-77t-77-33-77 33-33 77q0 46 32 78t78 32z m350 0q46 0 78-32t32-78q0-44-32-77t-78-33-78 33-32 77q0 46 32 78t78 32z" horiz-adv-x="920" />

<glyph glyph-name="autoparts-analogs" unicode="&#xe807;" d="M649 261l-95 0c-6 18-14 35-24 51l64 64c15 15 15 39 0 54l-27 27c-15 15-40 15-55 0l-64-64c-18 9-36 17-57 22l0 84c0 21-17 38-38 38l-38 0c-21 0-38-17-38-38l0-84c-22-5-43-14-61-25l-55 54c-14 14-39 14-54 0l-27-27c-15-15-14-40 1-55l55-55c-12-20-21-42-26-65l-72 0c-21 0-38-18-38-39l0-38c0-21 17-38 38-38l77 0c7-23 18-44 31-64l-52-51c-15-16-15-40 0-55l27-27c15-14 39-14 54 0l58 58c20-9 41-16 63-20l0-80c0-21 17-38 38-38l38 0c21 0 39 17 39 38l0 90c19 7 37 16 54 27l61-61c15-15 39-15 54 0l27 27c15 15 15 39 0 54l-67 67c8 17 14 35 18 54l91 0c21 0 38 17 39 38l0 38c-1 21-18 39-39 39l0 0z m-315-163c-52 0-95 43-95 96 0 53 43 95 95 95 53 0 96-42 96-95 0-53-43-96-96-96l0 0z m642 576l-61 0c-4 11-9 23-15 33l40 40c10 10 10 25 0 35l-17 17c-10 9-25 9-34 0l-41-41c-12 6-24 11-36 14l0 54c0 13-11 24-25 24l-24 0c-13 0-24-11-24-24l0-54c-14-3-27-9-39-16l-35 34c-9 10-25 10-34 0l-17-17c-10-9-10-25 0-34l35-35c-8-13-13-27-16-42l-46 0c-14 0-24-11-24-25l0-24c0-13 10-24 24-24l49 0c4-15 11-28 19-41l-33-33c-9-9-9-25 0-34l17-17c10-10 25-10 35 0l37 37c12-6 26-11 40-13l0-51c0-13 11-24 24-24l24 0c14 0 25 11 25 24l0 57c12 4 24 10 34 18l39-40c10-9 25-9 35 0l17 18c9 9 9 24 0 34l-43 43c5 11 9 22 12 34l58 0c13 0 24 11 24 24l0 25c0 13-11 24-24 24l0 0z m-201-103c-33 0-61 27-61 60 0 34 28 61 61 61 34 0 61-27 61-61 0-33-27-60-61-60l0 0z" horiz-adv-x="1000" />

<glyph glyph-name="autoparts-original" unicode="&#xe808;" d="M944 447l-139 0c-8 27-20 52-34 76l92 92c22 22 22 57 0 79l-39 39c-22 22-57 22-79 0l-93-94c-26 15-53 26-83 33l0 122c0 31-24 56-55 56l-56 0c-30 0-55-25-55-56l0-122c-32-8-62-20-89-37l-79 78c-22 22-57 22-79 0l-39-39c-22-21-22-57 0-78l80-81c-17-29-29-61-37-95l-104 0c-31 0-56-25-56-56l0-56c0-30 25-55 56-55l111 0c11-34 26-64 45-93l-75-75c-22-22-22-57 0-79l39-39c22-22 57-22 79 0l84 84c28-14 59-24 92-29l0-116c0-31 24-56 55-56l56 0c30 0 55 25 55 56l0 130c28 10 55 23 79 40l89-89c22-22 57-22 79 0l39 39c22 22 22 57 0 79l-98 98c12 24 21 50 27 78l132 0c31 0 56 24 56 55l0 56c0 30-25 55-56 55l0 0z m-458-236c-76 0-139 62-139 139 0 77 63 139 139 139 77 0 139-62 139-139 0-77-62-139-139-139l0 0z" horiz-adv-x="1000" />

<glyph glyph-name="edit" unicode="&#xe809;" d="M773 450l-160 160 107 107c25 27 28 27 53 0l107-107c26-26 27-26 0-53l-107-107 0 0z m27 347c-32 32-74 32-107 0l-592-592-81-295c-9-41 12-62 53-53l295 82 592 591c32 33 32 75 0 107l-160 160z" horiz-adv-x="1000" />

<glyph glyph-name="basket-1" unicode="&#xe80a;" d="M778 7c-36 0-65-29-65-64 0-36 29-65 65-65 36 0 65 29 65 65 0 35-29 64-65 64l0 0z m-324 0c-36 0-65-29-65-64 0-36 29-65 65-65 36 0 65 29 65 65 0 35-29 64-65 64l0 0z m421 195c0-36-29-65-65-65l-356 0c-36 0-65 29-65 65l-54 324 621 0-81-324 0 0z m-552 389l-81 259-210 0c-17 0-32-14-32-32 0-18 15-33 32-33l162 0 66-194-1 0 65-389c0-72 58-130 130-130l356 0c72 0 130 58 130 130l97 389-714 0 0 0z" horiz-adv-x="1037" />

<glyph glyph-name="delete-noactive" unicode="&#xe80b;" d="M78 517l632 0-46-665c-57 0-116 0-173 0-153 0-214 0-367 0l-46 665 307 306m393-60c0 9-5 13-13 13-4 1-8 1-12 1-45 0-87 0-128 0 0 0 0 0 0 0 0 14 0 15 0 14 0 2 0 6 0 14 0 31-13 44-44 44-124 0-248 0-372 0-31 0-44-13-44-45 0-3 0-6 0-8 0 2 0-9 0 0 0-1 0-4 0-11 0-3 0-6 0-8-45 0-92-1-143-1-17 0-20-2-20-20 0-38 0-76 0-113 0-19 2-21 21-21 138 0 229 0 368 0l0 0c98 0 196 0 294 0 41 0 36 0 77 0 9 0 16 2 16 12 0 43 0 86 0 129m-153 28c0-4 0-1 0 0" horiz-adv-x="833" />

<glyph glyph-name="document" unicode="&#xe80c;" d="M581 360l-367 0c-17 0-30-13-30-30 0-17 13-31 30-31l367 0c17 0 31 14 31 31 0 17-14 30-31 30l0 0z m0-183l-367 0c-17 0-30-14-30-31 0-17 13-30 30-30l367 0c17 0 31 13 31 30 0 17-14 31-31 31l0 0z m31 428c-34 0-61 28-61 61l0 123 183-184-122 0 0 0z m122-612c0-34-27-61-61-61l-551 0c-33 0-61 27-61 61l0 735c0 33 28 61 61 61l367 0c-1-74 1-123 1-123 0-67 54-122 122-122l122 0 0-551 0 0z m-183 857l0-1c-4 0-21 2-61 1l-368 0c-67 0-122-55-122-122l0-735c0-67 55-122 122-122l551 0c68 0 123 55 123 122l0 612-245 245 0 0z" horiz-adv-x="795" />

<glyph glyph-name="down-open-1" unicode="&#xe80d;" d="M0 533q0 25 18 43t44 18 42-18l305-303 304 303q18 18 43 18t43-18q18-18 18-43t-18-43l-390-391-391 391q-18 19-18 43z" horiz-adv-x="817.4" />

<glyph glyph-name="error" unicode="&#xe80e;" d="M708 633c-135-39-160-150-151-220-97 114-93 247-93 437-310-118-238-459-248-562-78 64-92 218-92 218-83-43-124-157-124-250 0-224 180-406 402-406 222 0 402 182 402 406 0 134-97 195-96 377" horiz-adv-x="804" />

<glyph glyph-name="left-open-1" unicode="&#xe80f;" d="M0 353l391 391q18 18 43 18 24 0 43-18 18-18 18-44t-18-43l-304-304 304-305q18-17 18-43t-18-43q-18-18-43-18t-43 18z" horiz-adv-x="495.1" />

<glyph glyph-name="right-open-1" unicode="&#xe810;" d="M0 0q0 25 18 43l305 304-305 304q-18 18-18 44t18 43 44 18 43-18l390-391-390-391q-19-18-43-18t-44 18q-18 18-18 44z" horiz-adv-x="495.1" />

<glyph glyph-name="up-open-1" unicode="&#xe811;" d="M0 167q0 26 18 43l391 391 390-391q17-17 17-43 0-26-17-44-18-17-44-17t-43 17l-303 305-305-305q-18-17-43-17t-43 17q-18 18-18 44z" horiz-adv-x="816.9" />

<glyph glyph-name="geo" unicode="&#xe812;" d="M375 381c-52 0-94 42-94 94 0 52 42 94 94 94 52 0 94-42 94-94 0-52-42-94-94-94l0 0z m0 250c-86 0-156-70-156-156 0-86 70-156 156-156 86 0 156 70 156 156 0 86-70 156-156 156l0 0z m0-687c-52-1-312 400-312 531 0 173 139 313 312 313 173 0 313-140 313-313 0-129-262-532-313-531l0 0z m0 906c-207 0-375-168-375-375 0-157 313-625 375-625 61 0 375 470 375 625 0 207-168 375-375 375l0 0z" horiz-adv-x="769" />

<glyph glyph-name="pin" unicode="&#xe813;" d="M410 37c11-133 70-70 135-5 33 33 70 71 108 109l254-254 86-30-28 88-255 255c47 49 93 96 131 134 48 48 82 95-13 111-48 8-115 7-157 4l-182 182c5 45 10 108 2 153-15 94-74 73-123 25-82-82-209-203-302-296-64-64-116-136 17-148 37-3 88 1 129 7l201-201c-4-41-6-94-3-134" horiz-adv-x="1000" />

<glyph glyph-name="notification" unicode="&#xe814;" d="M99 59l99 198 0 263c0 146 118 264 264 264 145 0 263-118 263-264l0-263 99-198-725 0 0 0z m363-132c-43 0-80 27-93 66l185 0c-13-39-49-66-92-66l0 0z m329 330l0 263c0 182-147 330-329 330-182 0-330-148-330-330l0-263-132-264 300 0c15-75 82-132 162-132 79 0 146 57 161 132l300 0-132 264 0 0z" horiz-adv-x="923" />

<glyph glyph-name="phone" unicode="&#xe815;" d="M76 600c55-104 176-264 278-369 117-127 393-300 393-300 22-12 81-12 97 4l59 59c12 20 18 44 0 58l-118 89c-20 13-42 16-59 0l-72-73c-17 12-290 191-442 437l75 74c16 16 13 39 0 59l-89 117c-16 22-42 17-59 0l-59-58c-23-22-16-73-4-97l0 0z m-46 139l92 92c26 25 67 25 93 0l139-185c21-31 25-67 0-92l-57-57c42-56 93-117 149-174 65-64 136-122 200-170l55 55c26 25 61 21 93 0l185-139c31-21 25-67 0-92l-93-92c-51-51-117-35-185 0 0 0-204 114-379 289-165 164-292 380-292 380-27 73-51 134 0 185l0 0z" horiz-adv-x="1000" />

<glyph glyph-name="rocket" unicode="&#xe816;" d="M787 779c-65-22-158-79-207-128l-265-265c-24-24-24-64 0-88l133-133c24-24 64-24 88 0l265 265c49 49 106 142 128 207l71 213-213-71 0 0z m-185-459c-36-37-96-37-132 0-37 36-37 96 0 132 36 37 96 37 132 0 37-36 37-96 0-132l0 0z m177 176c-37-36-96-36-132 0-37 37-37 96 0 133 36 37 95 37 132 0 37-37 37-96 0-133l0 0z m-641-198l221 220c-48 49-128 49-176 0l-133-132c-24-24-24-64 0-88 24-25 64-25 88 0m310-310c-25-24-25-64 0-88 24-25 64-25 88 0l133 132c48 49 48 129 0 177l-221-221m-199 243c-12-12-12-32 0-44l88-88c12-13 32-13 44 0l22 22-132 132-22-22m-249-381c125 62 313 188 250 250-62 63-187-125-250-250" horiz-adv-x="1000" />

<glyph glyph-name="settings" unicode="&#xe817;" d="M917 146l-33-58c-9-16-29-22-45-12l-92 53c-46-53-109-91-181-106l0-73c0-18-15-33-33-33l-66 0c-18 0-33 15-33 33l0 73c-72 15-135 53-181 106l-92-53c-16-10-36-4-45 12l-33 58c-9 16-4 36 12 45l92 54c-11 33-18 68-18 105 0 37 7 72 18 105l-92 54c-16 9-21 30-12 46l33 57c9 16 29 22 45 12l92-53c46 53 109 91 181 106l0 73c0 18 15 33 33 33l66 0c18 0 33-15 33-33l0-73c72-15 135-53 181-106l92 53c16 10 36 4 45-12l33-57c10-16 4-37-12-46l-92-54c11-33 18-68 18-105 0-37-7-72-18-105l92-54c16-9 22-29 12-45l0 0z m50 86l-77 45c4 24 7 48 7 73 0 25-3 49-7 73l77 45c32 18 42 59 24 91l-66 115c-18 32-59 43-90 25l-78-46c-37 32-79 57-125 74l0 56c0 37-29 67-66 67l-132 0c-37 0-66-30-66-67l0-56c-46-17-88-42-124-74l-79 46c-31 18-72 7-90-25l-66-115c-18-32-8-73 24-91l78-45c-5-24-8-48-8-73 0-25 3-49 8-73l-78-45c-32-18-42-59-24-91l66-115c18-32 59-43 90-25l79 46c36-32 78-57 124-74l0-56c0-37 29-67 66-67l132 0c37 0 66 30 66 67l0 56c46 17 88 42 125 74l78-46c31-18 72-7 90 25l66 115c18 32 8 73-24 91l0 0z m-467 18c-55 0-99 45-99 100 0 55 44 100 99 100 55 0 99-45 99-100 0-55-44-100-99-100l0 0z m0 267c-91 0-165-75-165-167 0-92 74-167 165-167 91 0 165 75 165 167 0 92-74 167-165 167l0 0z" horiz-adv-x="1000" />

<glyph glyph-name="wallet" unicode="&#xe818;" d="M874 622l-773 0c-34 0-63 7-63 38l836 38 0 76c0 63-51 76-114 76l-683-114c-61-14-77-39-77-76l0-684c0-63 51-114 114-114l760 0c63 0 114 51 114 114l0 532c0 63-51 114-114 114l0 0z m-38-456c-42 0-76 34-76 76 0 42 34 76 76 76 42 0 76-34 76-76 0-42-34-76-76-76l0 0z" horiz-adv-x="1000" />

<glyph glyph-name="up-dir" unicode="&#xe819;" d="M571 171q0-14-10-25t-25-10h-500q-15 0-25 10t-11 25 11 26l250 250q10 10 25 10t25-10l250-250q10-11 10-26z" horiz-adv-x="571.4" />

<glyph glyph-name="cancel-circled" unicode="&#xe81a;" d="M641 224q0 14-10 25l-101 101 101 101q10 11 10 25 0 15-10 26l-51 50q-10 11-25 11-15 0-25-11l-101-101-101 101q-11 11-26 11-15 0-25-11l-50-50q-11-11-11-26 0-14 11-25l101-101-101-101q-11-11-11-25 0-15 11-26l50-50q10-11 25-11 15 0 26 11l101 101 101-101q10-11 25-11 15 0 25 11l51 50q10 11 10 26z m216 126q0-117-57-215t-156-156-215-58-216 58-155 156-58 215 58 215 155 156 216 58 215-58 156-156 57-215z" horiz-adv-x="857.1" />

<glyph glyph-name="cancel" unicode="&#xe81b;" d="M724 112q0-22-15-38l-76-76q-16-15-38-15t-38 15l-164 165-164-165q-16-15-38-15t-38 15l-76 76q-16 16-16 38t16 38l164 164-164 164q-16 16-16 38t16 38l76 76q16 16 38 16t38-16l164-164 164 164q16 16 38 16t38-16l76-76q15-15 15-38t-15-38l-164-164 164-164q15-15 15-38z" horiz-adv-x="785.7" />
</font>
</defs>
</svg>
